PathFileType	4	(X/Y/Z)	D:\TRACE\v60_Jaco2_6-2-23\BothDRS_Motion3_6-platform.trc
DataRate	CameraRate	NumFrames	NumMarkers	Units	OrigDataRate	OrigDataStartFrame	OrigNumFrames
100.00	100.00	      35	5	mm	100.00	5251	      7000
Frame#	Time	Left_Front			Right_Front			Left_Aft			Right_Aft			Post			
		X1	Y1	Z1	X2	Y2	Z2	X3	Y3	Z3	X4	Y4	Z4	X5	Y5	Z5	

5251	52.500	-788.08502	-15.31269	-656.63525	782.80591	-16.92740	-633.76257	-718.50720	29.11983	479.11398	695.36456	28.67506	582.12610	8.01181	1269.10059	-1017.65302	
5252	52.510	-787.74689	-16.17142	-656.49933	783.08698	-17.37648	-633.74103	-718.44287	29.30790	478.91989	695.92157	29.45158	582.03986	8.18308	1268.33411	-1019.13660	
5253	52.520	-787.25549	-16.91390	-656.37030	783.10443	-17.95336	-634.03284	-718.13763	29.76706	478.95590	696.24072	29.82654	581.84167	8.52102	1267.41565	-1020.33313	
5254	52.530	-787.00385	-17.21504	-656.54095	783.86584	-18.65243	-634.38953	-717.89667	30.26472	478.68707	696.48907	30.11644	581.60590	9.20067	1266.76624	-1021.78131	
5255	52.540	-786.96643	-17.50076	-656.42126	784.20105	-19.11499	-634.35651	-717.45251	30.61948	478.47592	696.93274	30.61436	581.51459	9.05781	1266.02771	-1023.27673	
5256	52.550	-786.50256	-17.94830	-656.88562	784.43439	-19.46801	-634.55774	-717.11755	30.81651	478.30612	697.24695	30.65337	580.85846	9.43532	1265.23303	-1024.53516	
5257	52.560	-786.04425	-18.05116	-657.07501	784.88275	-20.00041	-634.63318	-716.80695	31.03235	478.15179	697.61395	31.37268	581.22736	9.89377	1264.38806	-1025.78601	
5258	52.570	-785.60834	-18.56911	-657.26794	785.31604	-20.50874	-634.80884	-716.52887	31.44205	477.98029	698.09467	31.77784	581.22876	10.19142	1263.74597	-1026.94983	
5259	52.580	-785.38220	-18.88819	-657.29657	785.63873	-21.37637	-634.85242	-716.14392	31.72652	477.97345	698.26984	32.11911	581.14990	10.36745	1262.88721	-1028.27930	
5260	52.590	-784.94598	-19.71165	-657.30438	785.77930	-21.63438	-634.90814	-715.83386	31.90698	477.88721	698.71490	32.70713	580.93408	10.86422	1261.91174	-1028.87964	
5261	52.600	-784.91833	-20.55182	-657.65839	786.17383	-22.04470	-635.12933	-715.38593	32.16568	477.77020	698.81995	33.05638	580.69696	11.24323	1261.17407	-1029.76343	
5262	52.610	-784.45544	-21.02125	-657.71692	786.37628	-22.72695	-635.16760	-715.18066	32.47849	477.72159	699.16705	33.38680	580.67401	11.61465	1260.63879	-1030.30615	
5263	52.620	-784.08820	-21.35376	-657.47107	786.83405	-23.20050	-635.14838	-714.66406	33.04491	477.46756	699.74188	33.85699	580.64948	12.12376	1259.82129	-1031.18896	
5264	52.630	-783.66766	-21.77524	-657.42572	787.17957	-23.57359	-635.33862	-714.15692	33.11945	477.53375	699.82208	34.09110	580.48175	12.28975	1259.04834	-1031.94080	
5265	52.640	-783.27020	-22.08691	-657.60876	787.51263	-23.83159	-635.29144	-714.07892	33.50554	477.49963	700.08490	34.33739	580.32208	12.53772	1258.70593	-1032.58875	
5266	52.650	-782.80090	-22.99434	-658.34155	787.89819	-24.43004	-635.36566	-713.71893	33.57940	477.28595	700.33527	34.50651	580.24609	13.22468	1258.12976	-1033.45959	
5267	52.660	-782.53442	-22.70500	-657.94495	788.35321	-24.65640	-635.41437	-713.23004	33.81230	477.18182	701.15637	35.10340	580.02936	13.24613	1257.27185	-1034.32581	
5268	52.670	-781.99042	-23.12461	-657.89404	788.68860	-24.83266	-635.50134	-712.77521	34.09491	477.21768	701.25946	35.12299	580.09558	13.65021	1256.81458	-1035.03589	
5269	52.680	-781.51599	-23.49963	-658.03149	789.22211	-25.16784	-635.65594	-712.36163	34.21349	477.12628	701.49866	35.19255	580.01990	14.09436	1256.43994	-1035.85791	
5270	52.690	-781.50525	-23.41039	-658.20386	789.53223	-25.52685	-635.64349	-712.08911	34.42745	477.07272	701.79382	35.34798	579.93744	14.54246	1256.08618	-1036.54016	
5271	52.700	-781.04211	-23.99403	-657.96716	789.68182	-26.00971	-635.86780	-711.85645	34.60179	477.04041	702.27271	35.48860	580.26782	15.12585	1255.15588	-1037.36414	
5272	52.710	-780.64636	-24.48219	-657.72668	790.20563	-26.26735	-635.75238	-711.50446	34.83518	477.00180	702.58380	35.76174	580.44910	15.29945	1254.59070	-1037.86658	
5273	52.720	-780.07526	-24.97720	-657.96234	790.51105	-26.68440	-635.80798	-710.92450	35.06131	476.87466	703.16309	36.61888	579.55286	15.74933	1254.21094	-1038.53784	
5274	52.730	-779.55212	-25.50793	-658.39368	790.97339	-26.99056	-635.86377	-710.55182	35.39824	476.70654	703.74402	37.00446	579.49158	16.18843	1253.80115	-1039.30042	
5275	52.740	-779.25842	-25.84458	-658.53265	791.39783	-27.29372	-635.92224	-710.19611	35.62178	476.50613	704.31573	37.23440	579.38409	16.32614	1253.28271	-1039.98596	
5276	52.750	-779.01984	-26.17046	-658.62354	791.80579	-27.63371	-635.86969	-709.72510	35.88471	476.39389	704.67041	37.36710	579.30530	16.80297	1252.69763	-1040.54028	
5277	52.760	-778.73767	-26.45763	-658.53137	792.24683	-27.93558	-635.96722	-709.51727	36.01451	476.27542	705.19214	37.63303	579.26581	17.34675	1252.15601	-1041.16956	
5278	52.770	-778.25714	-26.73785	-658.31671	792.65454	-28.21031	-635.95660	-709.12811	36.20296	476.35583	705.42755	37.78493	579.24573	17.56139	1251.77283	-1041.75537	
5279	52.780	-778.22675	-26.45415	-658.45850	792.99268	-28.40177	-636.10852	-708.70319	36.45470	476.22644	705.75610	38.00306	579.24152	18.00130	1251.56506	-1042.38904	
5280	52.790	-777.59821	-26.72045	-658.61133	793.37915	-28.52935	-636.13440	-708.31689	36.55569	476.26004	706.01050	38.07404	579.11444	18.15810	1251.07080	-1042.90918	
5281	52.800	-776.78607	-27.15737	-658.48743	793.68158	-28.70481	-636.06238	-707.62500	36.25277	476.42813	706.54742	38.32599	579.00873	18.66609	1250.78760	-1043.52893	
5282	52.810	-776.32977	-27.44438	-658.56232	794.09027	-28.98526	-636.14172	-707.51331	36.93031	476.16855	707.06580	38.51233	578.94696	19.18563	1250.33337	-1043.99194	
5283	52.820	-776.09460	-27.71695	-658.70807	794.60889	-29.15870	-636.14825	-707.22278	37.18183	476.09683	707.35706	38.60137	578.85724	19.81825	1250.02039	-1044.55701	
5284	52.830	-775.81488	-27.96491	-658.75842	794.87726	-29.35322	-636.15717	-706.66223	37.35438	476.05276	707.75153	38.78025	578.81439	20.20453	1249.88000	-1044.65906	
5285	52.840	-775.69037	-27.56335	-658.72620	795.37231	-29.54895	-636.24377	-706.45361	37.55300	476.01010	707.96600	38.95815	578.78650	20.41022	1249.78894	-1044.92834	
